<svg width="123" height="123" viewBox="0 0 123 123" fill="none" xmlns="http://www.w3.org/2000/svg">
<path d="M29.725 94.3761C25.7621 94.3761 22.55 97.5882 22.55 101.551C22.55 105.514 25.7621 108.726 29.725 108.726C33.6879 108.726 36.9 105.514 36.9 101.551C36.9 97.5882 33.6879 94.3761 29.725 94.3761ZM29.725 104.626C28.0263 104.626 26.65 103.25 26.65 101.551C26.65 99.8524 28.0263 98.4761 29.725 98.4761C31.4236 98.4761 32.8 99.8524 32.8 101.551C32.8 103.25 31.4236 104.626 29.725 104.626Z" fill="#EB1C24"/>
<path d="M85.075 108.726C89.0379 108.726 92.25 105.514 92.25 101.551C92.25 97.5882 89.0379 94.3761 85.075 94.3761C81.1121 94.3761 77.9 97.5882 77.9 101.551C77.9 105.514 81.1121 108.726 85.075 108.726ZM85.075 98.4761C86.7737 98.4761 88.15 99.8524 88.15 101.551C88.15 103.25 86.7737 104.626 85.075 104.626C83.3763 104.626 82 103.25 82 101.551C82 99.8524 83.3763 98.4761 85.075 98.4761Z" fill="#EB1C24"/>
<path d="M100.45 101.551C100.45 97.1998 98.6062 93.0518 95.376 90.1369C92.1459 87.2211 87.8317 85.8107 83.5025 86.2562L81.9369 81.5416L81.0591 77.1563L83.9289 58.5011L97.2869 46.129C97.4381 46.097 97.5922 46.076 97.7464 46.0329L99.5091 45.5284L100.636 48.0669C100.966 48.8006 101.695 49.2741 102.5 49.2761H120.95C121.779 49.2761 122.527 48.7766 122.844 48.0108C123.161 47.2451 122.985 46.3632 122.399 45.7767L114.636 38.0111L108.404 7.53436C108.258 6.81866 107.743 6.23509 107.051 6.00186C106.36 5.76763 105.596 5.91978 105.046 6.40025L94.9727 15.2159C94.6163 15.5272 94.3781 15.9516 94.3 16.419L92.281 28.4357C92.214 28.8331 92.265 29.2405 92.4282 29.6089L93.6584 32.3986L91.5143 34.1533C90.8306 34.7209 90.2651 35.4176 89.8497 36.2033L66.625 53.0848C66.0645 53.4922 65.7471 54.1558 65.7822 54.8485L66.9343 77.5026L65.8422 86.1761H59.45C58.3179 86.1761 57.4 87.094 57.4 88.2261H53.3V82.0761H61.5C62.6321 82.0761 63.55 81.1582 63.55 80.0261V75.9261C63.55 75.7179 63.518 75.5097 63.4559 75.3115L53.2059 42.5115C52.9366 41.6566 52.1449 41.0761 51.25 41.0761V36.9761H47.15V41.0761H34.85V36.9761H30.75V41.0761C29.6179 41.0761 28.7 41.994 28.7 43.1261V67.7261H20.5V55.4261C20.5 50.8977 16.8284 47.2261 12.3 47.2261H10.25V51.3261H12.3C14.5642 51.3261 16.4 53.1619 16.4 55.4261V67.7261H8.2V65.6761H10.25C11.3821 65.6761 12.3 64.7582 12.3 63.6261V57.4761C12.3 56.344 11.3821 55.4261 10.25 55.4261H2.05C0.917895 55.4261 0 56.344 0 57.4761V63.6261C0 64.7582 0.917895 65.6761 2.05 65.6761H4.1V67.7261H2.05C0.917895 67.7261 0 68.644 0 69.7761V104.626C0 105.758 0.917895 106.676 2.05 106.676H15.2479C16.0847 109.024 17.4781 111.134 19.3088 112.826H0V116.926H123V112.826H95.4952C98.6512 109.926 100.449 105.837 100.45 101.551ZM4.1 59.5261H8.2V61.5761H4.1V59.5261ZM96.35 101.551C96.35 107.778 91.3021 112.826 85.075 112.826C78.8479 112.826 73.8 107.778 73.8 101.551C73.8 95.324 78.8479 90.2761 85.075 90.2761C91.2991 90.2841 96.342 95.327 96.35 101.551ZM98.2198 17.8184L105.092 11.8085L110.743 39.4365C110.822 39.8299 111.016 40.1922 111.301 40.4755L116.001 45.1761H103.832L102.525 42.2322L98.1518 32.3926L96.4261 28.5098L98.2198 17.8184ZM94.1198 37.3244L95.3931 36.2834L97.8154 41.7367L96.6103 42.0811C95.315 42.4624 93.9356 41.8348 93.3731 40.6066C92.8436 39.4705 93.1519 38.1192 94.1218 37.3244H94.1198ZM89.3882 41.6046C89.4643 41.8538 89.5534 42.0981 89.6565 42.3373C90.208 43.5275 91.0909 44.5335 92.199 45.2351L80.6056 55.9736C80.2663 56.2879 80.0431 56.7083 79.975 57.1668L77.851 71.0263C75.7389 69.5128 72.9412 69.3587 70.6759 70.6309L69.9192 55.7484L89.3882 41.6046ZM67.65 90.2761C68.684 90.2761 69.5559 89.5063 69.684 88.4803L71.0323 77.6808V77.6458L71.2005 76.3014C71.3656 74.9531 72.4847 73.9241 73.842 73.8731C75.1994 73.822 76.3925 74.7639 76.6578 76.0962L77.937 82.4735C77.951 82.5575 77.9731 82.6396 78.0021 82.7197L79.5056 87.2301C73.5998 89.5293 69.708 95.2139 69.7 101.551C69.7 101.897 69.729 102.236 69.751 102.576H61.5V90.2761H67.65ZM57.4 92.3261V98.4761H53.3V92.3261H57.4ZM57.431 69.7761H41V53.3761H52.306L57.431 69.7761ZM30.75 71.8261C31.8821 71.8261 32.8 70.9082 32.8 69.7761V45.1761H49.7435L51.0248 49.2761H38.95C37.8179 49.2761 36.9 50.194 36.9 51.3261V71.8261C36.9 72.9582 37.8179 73.8761 38.95 73.8761H58.7123L59.45 76.2374V77.9761H22.55C22.0505 77.9761 21.569 78.1583 21.1947 78.4886L7.42725 90.6184H4.1V71.8261H30.75ZM4.1 102.576V94.7184H8.2C8.69949 94.7184 9.18096 94.5362 9.55532 94.2059L23.3268 82.0761H49.2V102.576H45.051C45.073 102.236 45.102 101.897 45.102 101.551C45.102 93.0598 38.2183 86.1761 29.727 86.1761C21.2357 86.1761 14.352 93.0598 14.352 101.551C14.352 101.897 14.381 102.236 14.4031 102.576H4.1ZM18.45 101.551C18.45 95.324 23.4979 90.2761 29.725 90.2761C35.9521 90.2761 41 95.324 41 101.551C41 107.778 35.9521 112.826 29.725 112.826C23.5009 112.818 18.458 107.775 18.45 101.551ZM40.1452 112.826C41.977 111.135 43.3693 109.024 44.2041 106.676H51.25C52.3821 106.676 53.3 105.758 53.3 104.626V102.576H57.4V104.626C57.4 105.758 58.3179 106.676 59.45 106.676H70.5959C71.4317 109.024 72.826 111.134 74.6568 112.826H40.1452Z" fill="#252837"/>
<path d="M8.20001 75.9261H12.3V80.0261H8.20001V75.9261Z" fill="#252837"/>
</svg>
