<svg width="123" height="123" viewBox="0 0 123 123" fill="none" xmlns="http://www.w3.org/2000/svg">
<g clip-path="url(#clip0)">
<path d="M122.681 35.7989L108.331 13.2489L108.298 13.27C107.937 12.6754 107.296 12.308 106.6 12.3V4.10001H102.5V12.3H100.45C99.3179 12.3 98.4 13.2179 98.4 14.35V34.85H49.2V30.75C49.2 29.6179 48.2821 28.7 47.15 28.7H34.85C33.7179 28.7 32.8 29.6179 32.8 30.75V34.85H24.6V14.35C24.6 13.2179 23.6821 12.3 22.55 12.3H20.5V4.10001H16.4V12.3C15.7043 12.308 15.0627 12.6754 14.7023 13.27L14.6693 13.2489L0.319312 35.7989L0.352344 35.82C0.132129 36.1373 0.00900878 36.5136 0 36.9V45.1C0 46.0399 0.639624 46.8597 1.55151 47.0889L9.75151 49.1389C9.91467 49.179 10.0818 49.2 10.25 49.2H14.35V100.45H8.2C7.65647 100.45 7.13496 100.666 6.75059 101.051L2.65059 105.151C2.26621 105.535 2.05 106.056 2.05 106.6V114.8H0V118.9H123V114.8H108.65V49.2H110.7C110.838 49.2 110.975 49.186 111.11 49.159L121.36 47.109C122.314 46.9138 123 46.074 123 45.1V36.9C122.991 36.5136 122.868 36.1373 122.648 35.82L122.681 35.7989ZM108.65 21.3899L117.215 34.85H108.65V21.3899ZM102.5 16.4H104.55V34.85H102.5V16.4ZM36.9 32.8H45.1V34.85H36.9V32.8ZM5.78464 34.85L14.35 21.3899V34.85H5.78464ZM18.45 16.4H20.5V34.85H18.45V16.4ZM6.15 107.449L9.04883 104.55H14.35V114.8H6.15V107.449ZM18.45 114.8V49.2H22.55V114.8H18.45ZM32.8 49.2V53.3C32.8 54.4321 33.7179 55.35 34.85 55.35H36.7338L31.1994 62.2688C31.0943 62.4039 31.0062 62.552 30.9382 62.7092C30.9382 62.7282 30.9162 62.7422 30.9102 62.7612C30.8201 62.9855 30.772 63.2247 30.766 63.4659C30.766 63.497 30.75 63.521 30.75 63.55V79.95C30.75 81.0821 31.6679 82 32.8 82H49.2C50.3321 82 51.25 81.0821 51.25 79.95V63.55C51.25 63.521 51.234 63.497 51.234 63.4659C51.228 63.2247 51.1799 62.9855 51.0898 62.7612C51.0898 62.7422 51.0698 62.7282 51.0618 62.7092C50.9937 62.552 50.9057 62.4039 50.8006 62.2688L45.2662 55.35H47.15C48.2821 55.35 49.2 54.4321 49.2 53.3V49.2H96.35V114.8H92.25V67.65C92.25 66.5179 91.3321 65.6 90.2 65.6H73.8C72.6679 65.6 71.75 66.5179 71.75 67.65V82H57.4C56.2679 82 55.35 82.9179 55.35 84.05V98.4H41C39.8679 98.4 38.95 99.3179 38.95 100.45V114.8H26.65V49.2H32.8ZM34.85 77.9V65.6H38.95V77.9H34.85ZM43.05 65.6H47.15V77.9H43.05V65.6ZM41 61.5H37.0662L41 56.5802L44.9338 61.5H41ZM36.9 51.25V49.2H45.1V51.25H36.9ZM59.45 98.4V86.1H63.55V98.4H59.45ZM67.65 86.1H71.75V98.4H67.65V86.1ZM88.15 82H84.05V69.7H88.15V82ZM79.95 82H75.85V69.7H79.95V82ZM75.85 86.1H79.95V98.4H75.85V86.1ZM84.05 86.1H88.15V98.4H84.05V86.1ZM43.05 102.5H47.15V114.8H43.05V102.5ZM51.25 102.5H55.35V114.8H51.25V102.5ZM59.45 102.5H63.55V114.8H59.45V102.5ZM67.65 102.5H71.75V114.8H67.65V102.5ZM75.85 102.5H79.95V114.8H75.85V102.5ZM84.05 114.8V102.5H88.15V114.8H84.05ZM104.55 114.8H100.45V49.2H104.55V114.8ZM118.9 43.4214L110.495 45.1H10.5022L4.1 43.4994V38.95H118.9V43.4214Z" fill="#252837"/>
<path d="M33 64L40.5 54H41.5L49.5 64V79.5H33V64Z" stroke="#EB1C24" stroke-width="5"/>
<path d="M49 63.5H41M33 63.5H41M41 63.5V80" stroke="#EB1C24" stroke-width="5"/>
</g>
<defs>
<clipPath id="clip0">
<rect width="123" height="123" fill="white"/>
</clipPath>
</defs>
</svg>
